<svg width="174" height="151" viewBox="0 0 174 151" fill="none" xmlns="http://www.w3.org/2000/svg">
<g clip-path="url(#clip0_1977_30104)">
<path d="M3.07422 139.041V118.754H10.1775C12.6413 118.754 14.5053 119.224 15.7755 120.171C17.0456 121.118 17.6865 122.494 17.6865 124.317C17.6865 125.31 17.4337 126.186 16.9221 126.945C16.4105 127.704 15.699 128.256 14.7935 128.609C15.8343 128.868 16.6516 129.391 17.2514 130.185C17.8512 130.973 18.1511 131.943 18.1511 133.084C18.1511 135.036 17.5278 136.512 16.2812 137.512C15.0346 138.517 13.2646 139.029 10.9596 139.046H3.07422V139.041ZM7.25505 127.257H10.348C12.4531 127.221 13.5116 126.381 13.5116 124.734C13.5116 123.817 13.247 123.152 12.7119 122.747C12.1768 122.341 11.3359 122.141 10.1834 122.141H7.26093V127.251L7.25505 127.257ZM7.25505 130.209V135.683H10.8361C11.8181 135.683 12.5884 135.448 13.1411 134.977C13.6939 134.507 13.9702 133.86 13.9702 133.037C13.9702 131.179 13.0118 130.238 11.0889 130.209H7.25505Z" fill="white"/>
<path d="M28.7981 131.614H25.4699V139.041H21.2891V118.754H28.8275C31.2207 118.754 33.073 119.289 34.3725 120.353C35.672 121.424 36.3248 122.929 36.3248 124.881C36.3248 126.263 36.0249 127.421 35.4251 128.345C34.8253 129.268 33.9197 130.003 32.7025 130.55L37.0892 138.841V139.035H32.6026L28.7981 131.608V131.614ZM25.4699 128.227H28.8392C29.8918 128.227 30.7033 127.962 31.2795 127.427C31.8558 126.892 32.1439 126.157 32.1439 125.216C32.1439 124.275 31.8734 123.505 31.3266 122.958C30.7856 122.411 29.9506 122.135 28.8275 122.135H25.4699V128.221V128.227Z" fill="white"/>
<path d="M43.9308 139.041H39.75V118.754H43.9308V139.041Z" fill="white"/>
<path d="M63.7344 132.285C63.5756 134.467 62.77 136.184 61.3176 137.442C59.8652 138.695 57.9482 139.324 55.5726 139.324C52.9736 139.324 50.9273 138.448 49.4337 136.695C47.9401 134.943 47.1992 132.544 47.1992 129.486V128.246C47.1992 126.293 47.5403 124.576 48.2283 123.089C48.9162 121.601 49.8982 120.46 51.1742 119.666C52.4502 118.873 53.9379 118.473 55.6256 118.473C57.9659 118.473 59.8534 119.102 61.2823 120.354C62.7112 121.607 63.5403 123.371 63.7638 125.635H59.5829C59.483 124.323 59.1184 123.377 58.4892 122.789C57.86 122.201 56.9074 121.907 55.6256 121.907C54.2319 121.907 53.1912 122.407 52.4973 123.406C51.8034 124.406 51.4506 125.952 51.433 128.052V129.586C51.433 131.78 51.7681 133.379 52.4326 134.39C53.0971 135.402 54.1437 135.907 55.5726 135.907C56.8663 135.907 57.8247 135.613 58.4657 135.025C59.1066 134.437 59.4653 133.526 59.5594 132.285H63.7402H63.7344Z" fill="white"/>
<path d="M72.8331 130.91L70.6574 133.251V139.048H66.4766V118.762H70.6574V127.958L72.4979 125.436L77.6666 118.762H82.8059L75.6026 127.776L83.0117 139.048H78.037L72.8272 130.91H72.8331Z" fill="white"/>
<path d="M97.1522 118.762L102.362 133.474L107.543 118.762H113.029V139.048H108.836V133.503L109.254 123.93L103.779 139.048H100.91L95.4469 123.948L95.8644 133.503V139.048H91.6836V118.762H97.1463H97.1522Z" fill="white"/>
<path d="M133.352 129.363C133.352 131.362 132.999 133.108 132.294 134.614C131.588 136.119 130.577 137.278 129.265 138.095C127.948 138.912 126.443 139.318 124.744 139.318C123.044 139.318 121.562 138.912 120.245 138.107C118.928 137.295 117.905 136.143 117.182 134.643C116.458 133.144 116.088 131.415 116.082 129.469V128.463C116.082 126.464 116.441 124.712 117.164 123.189C117.881 121.671 118.899 120.507 120.216 119.69C121.527 118.878 123.032 118.473 124.72 118.473C126.408 118.473 127.913 118.878 129.224 119.69C130.541 120.501 131.553 121.666 132.276 123.189C132.994 124.706 133.358 126.458 133.358 128.445V129.351L133.352 129.363ZM129.118 128.445C129.118 126.317 128.736 124.7 127.978 123.594C127.219 122.489 126.131 121.936 124.72 121.936C123.309 121.936 122.233 122.483 121.474 123.571C120.716 124.665 120.328 126.264 120.316 128.369V129.357C120.316 131.427 120.698 133.032 121.457 134.179C122.215 135.325 123.315 135.89 124.744 135.89C126.172 135.89 127.225 135.337 127.978 134.237C128.73 133.138 129.113 131.533 129.118 129.422V128.434V128.445Z" fill="white"/>
<path d="M152.883 139.041H148.702L140.564 125.693V139.041H136.383V118.754H140.564L148.714 132.131V118.754H152.877V139.041H152.883Z" fill="white"/>
<path d="M156.531 139.041V118.754H162.77C164.552 118.754 166.151 119.154 167.557 119.959C168.962 120.765 170.062 121.906 170.85 123.388C171.638 124.869 172.032 126.551 172.032 128.439V129.374C172.032 131.261 171.643 132.937 170.867 134.401C170.091 135.871 168.997 137.006 167.586 137.812C166.175 138.617 164.581 139.029 162.805 139.035H156.52L156.531 139.041ZM160.712 122.141V135.683H162.735C164.37 135.683 165.616 135.148 166.481 134.084C167.345 133.019 167.786 131.49 167.804 129.503V128.433C167.804 126.369 167.374 124.811 166.522 123.746C165.669 122.682 164.417 122.153 162.776 122.153H160.712V122.141Z" fill="white"/>
<path d="M6.74506 145.79C6.6451 145.401 6.47457 145.06 6.37461 144.919C6.20996 144.702 6.12764 144.631 5.58666 144.631H4.86339V149.112C4.86339 149.882 4.9516 149.953 5.81011 150.017V150.335H2.82884V150.017C3.65795 149.953 3.7344 149.888 3.7344 149.112V144.631H3.06405C2.54071 144.631 2.38783 144.708 2.2173 144.949C2.09382 145.131 1.98209 145.431 1.85861 145.795H1.52344C1.58812 145.149 1.64692 144.461 1.67044 143.984H1.92917C2.0703 144.202 2.18202 144.214 2.45839 144.214H6.20996C6.46869 144.214 6.58042 144.167 6.7333 143.984H6.99203C6.99791 144.396 7.03319 145.172 7.08023 145.76L6.75094 145.79H6.74506Z" fill="white"/>
<path d="M13.796 150.397C13.7136 150.397 13.6078 150.397 13.4902 150.385C12.4729 150.332 12.1201 150.103 11.7908 149.644C11.4262 149.139 11.1263 148.556 10.8147 148.027C10.6559 147.757 10.5266 147.698 10.162 147.698H9.92678V149.103C9.92678 149.879 10.0267 149.938 10.7441 150.021V150.338H7.99219V150.021C8.73309 149.944 8.80954 149.879 8.80954 149.103V145.446C8.80954 144.681 8.70957 144.605 7.99219 144.54V144.223H10.6089C11.3909 144.223 11.8672 144.311 12.2436 144.57C12.6258 144.822 12.8786 145.24 12.8786 145.816C12.8786 146.645 12.3377 147.11 11.6908 147.374C11.8437 147.663 12.2201 148.28 12.5023 148.709C12.8375 149.221 13.0374 149.468 13.2256 149.685C13.4549 149.938 13.596 150.026 13.8489 150.109L13.796 150.409V150.397ZM10.2502 147.327C10.6853 147.327 10.997 147.257 11.2087 147.075C11.538 146.81 11.6791 146.445 11.6791 145.951C11.6791 144.952 11.0734 144.587 10.4736 144.587C10.2149 144.587 10.0797 144.623 10.015 144.681C9.94442 144.74 9.9209 144.846 9.9209 145.058V147.327H10.2443H10.2502Z" fill="white"/>
<path d="M17.9781 150.333V150.015C18.5778 149.933 18.6014 149.833 18.472 149.445C18.3661 149.133 18.2015 148.692 18.0427 148.239H16.1375C16.0199 148.574 15.8847 148.939 15.773 149.262C15.573 149.862 15.7671 149.939 16.5198 150.015V150.333H14.25V150.015C14.8439 149.939 14.9909 149.862 15.3143 149.051L17.2665 144.158L17.6664 144.082C18.2662 145.711 18.9071 147.422 19.5128 149.016C19.8421 149.874 19.9303 149.939 20.5595 150.015V150.333H17.9722H17.9781ZM17.1078 145.652C16.8255 146.375 16.5433 147.087 16.2904 147.792H17.8781L17.1078 145.652Z" fill="white"/>
<path d="M23.9376 144.215C25.1842 144.215 26.0545 144.474 26.6484 145.032C27.1188 145.479 27.4775 146.138 27.4775 147.073C27.4775 148.16 27.0247 149.013 26.3015 149.56C25.5958 150.089 24.6962 150.336 23.5966 150.336H21.1445V150.019C21.8913 149.954 21.9619 149.877 21.9619 149.101V145.461C21.9619 144.662 21.856 144.603 21.1445 144.538V144.221H23.9376V144.215ZM23.0968 149.025C23.0968 149.707 23.3143 149.925 24.0082 149.925C25.4253 149.925 26.2074 148.943 26.2074 147.214C26.2074 146.273 25.9251 145.491 25.3842 145.073C24.9784 144.721 24.4668 144.597 23.8377 144.597C23.4613 144.597 23.279 144.668 23.2085 144.726C23.1262 144.803 23.0968 144.944 23.0968 145.25V149.031V149.025Z" fill="white"/>
<path d="M28.5547 150.33V150.013C29.2897 149.942 29.372 149.889 29.372 149.095V145.456C29.372 144.656 29.2838 144.597 28.5547 144.532V144.215H31.3301V144.532C30.5951 144.603 30.5128 144.662 30.5128 145.456V149.095C30.5128 149.883 30.5951 149.93 31.3301 150.013V150.33H28.5547Z" fill="white"/>
<path d="M38.9457 144.534C38.3636 144.605 38.1754 144.717 38.146 145.146C38.1225 145.493 38.099 145.834 38.099 146.675V150.432H37.6344L33.6712 145.652V147.857C33.6712 148.686 33.6947 149.074 33.7182 149.344C33.7476 149.779 33.9593 149.974 34.6473 150.015V150.332H32.3305V150.015C32.8832 149.968 33.1125 149.826 33.1655 149.38C33.2007 149.056 33.2184 148.686 33.2184 147.851V145.563C33.2184 145.269 33.2007 145.081 33.0243 144.852C32.8538 144.617 32.6362 144.581 32.2188 144.54V144.223H33.9064L37.6344 148.592V146.681C37.6344 145.84 37.6227 145.499 37.5933 145.175C37.5639 144.764 37.3933 144.587 36.6171 144.54V144.223H38.9398V144.54L38.9457 144.534Z" fill="white"/>
<path d="M46.0846 147.757C45.5319 147.845 45.4731 147.887 45.4731 148.498V149.245C45.4731 149.58 45.4848 149.898 45.5319 150.15C45.0144 150.25 44.0736 150.468 43.3033 150.468C41.1158 150.468 39.8398 149.127 39.8398 147.257C39.8398 145.188 41.5275 144.082 43.4856 144.082C44.3147 144.082 45.1026 144.27 45.4084 144.305C45.426 144.699 45.4907 145.364 45.5613 145.905L45.2261 145.97C45.0027 145.17 44.6793 144.788 44.0912 144.588C43.8737 144.511 43.515 144.47 43.2621 144.47C42.0155 144.47 41.1335 145.458 41.1335 147.116C41.1335 148.774 41.7803 150.086 43.4268 150.086C43.662 150.086 43.9207 150.045 44.0971 149.945C44.2559 149.85 44.35 149.709 44.35 149.386V148.575C44.35 147.904 44.2382 147.839 43.4091 147.751V147.428H46.0846V147.751V147.757Z" fill="white"/>
<path d="M52.3921 150.333V150.015C52.9919 149.933 53.0154 149.833 52.8861 149.445C52.7802 149.133 52.6156 148.692 52.4568 148.239H50.5516C50.4281 148.574 50.2988 148.939 50.187 149.262C49.9871 149.862 50.1812 149.939 50.9338 150.015V150.333H48.6641V150.015C49.258 149.939 49.405 149.862 49.7284 149.051L51.6806 144.158L52.0805 144.082C52.6802 145.711 53.3212 147.422 53.9268 149.016C54.2561 149.874 54.3443 149.939 54.9735 150.015V150.333H52.3862H52.3921ZM51.5218 145.652C51.2396 146.375 50.9573 147.087 50.7045 147.792H52.2921L51.5218 145.652Z" fill="white"/>
<path d="M62.1039 144.534C61.5218 144.605 61.3336 144.717 61.3042 145.146C61.2807 145.493 61.2572 145.834 61.2572 146.675V150.432H60.7868L56.8235 145.652V147.857C56.8235 148.686 56.847 149.074 56.8705 149.344C56.8999 149.779 57.1116 149.974 57.7996 150.015V150.332H55.4828V150.015C56.0356 149.968 56.2649 149.826 56.3178 149.38C56.3531 149.056 56.3707 148.686 56.3707 147.851V145.563C56.3707 145.269 56.3531 145.081 56.1767 144.852C56.0062 144.617 55.7886 144.581 55.3711 144.54V144.223H57.0587L60.7868 148.592V146.681C60.7868 145.84 60.775 145.499 60.7456 145.175C60.7162 144.764 60.5457 144.587 59.7695 144.54V144.223H62.0922V144.54L62.1039 144.534Z" fill="white"/>
<path d="M65.7658 144.215C67.0124 144.215 67.8826 144.474 68.4765 145.032C68.9528 145.479 69.3056 146.138 69.3056 147.073C69.3056 148.16 68.8529 149.013 68.1296 149.56C67.424 150.089 66.5243 150.336 65.4247 150.336H62.9727V150.019C63.7194 149.954 63.79 149.877 63.79 149.101V145.461C63.79 144.662 63.6842 144.603 62.9727 144.538V144.221H65.7658V144.215ZM64.9249 149.025C64.9249 149.707 65.1425 149.925 65.8363 149.925C67.2534 149.925 68.0355 148.943 68.0355 147.214C68.0355 146.273 67.7533 145.491 67.2123 145.073C66.8007 144.721 66.295 144.597 65.6658 144.597C65.2895 144.597 65.1072 144.668 65.0366 144.726C64.9543 144.803 64.9249 144.944 64.9249 145.25V149.031V149.025Z" fill="white"/>
<path d="M78.4638 148.759C78.3344 149.223 78.0875 149.923 77.9405 150.241C77.6876 150.299 76.9291 150.482 76.2117 150.482C73.7773 150.482 72.6953 148.9 72.6953 147.347C72.6953 145.407 74.1712 144.09 76.3763 144.09C77.1937 144.09 77.8934 144.278 78.1521 144.313C78.1992 144.748 78.2639 145.401 78.3286 145.83L77.9816 145.895C77.7876 145.195 77.523 144.837 77.0349 144.637C76.7997 144.537 76.4469 144.49 76.1588 144.49C74.7299 144.49 73.9948 145.63 73.9948 147.136C73.9948 148.894 74.9004 150.058 76.2705 150.058C77.1231 150.058 77.6288 149.635 78.1286 148.629L78.4579 148.753L78.4638 148.759Z" fill="white"/>
<path d="M82.7772 144.082C84.4707 144.082 85.8996 145.34 85.8996 147.199C85.8996 149.21 84.4883 150.474 82.7243 150.474C80.8661 150.474 79.5195 149.098 79.5195 147.298C79.5195 145.664 80.6838 144.082 82.7713 144.082H82.7772ZM82.6184 144.476C81.6246 144.476 80.8308 145.399 80.8308 147.099C80.8308 148.798 81.5776 150.086 82.8713 150.086C83.8533 150.086 84.6059 149.227 84.6059 147.469C84.6059 145.564 83.765 144.476 82.6184 144.476Z" fill="white"/>
<path d="M93.5219 144.534C92.9398 144.605 92.7516 144.717 92.7222 145.146C92.6987 145.493 92.6751 145.834 92.6751 146.675V150.432H92.2047L88.2415 145.652V147.857C88.2415 148.686 88.265 149.074 88.2885 149.344C88.3179 149.779 88.5296 149.974 89.2176 150.015V150.332H86.9008V150.015C87.4535 149.968 87.6887 149.826 87.7358 149.38C87.7711 149.056 87.7887 148.686 87.7887 147.851V145.563C87.7887 145.269 87.7711 145.081 87.5946 144.852C87.4241 144.617 87.2066 144.581 86.7891 144.54V144.223H88.4767L92.2047 148.592V146.681C92.2047 145.84 92.193 145.499 92.1636 145.175C92.1342 144.764 91.9636 144.587 91.1875 144.54V144.223H93.5101V144.54L93.5219 144.534Z" fill="white"/>
<path d="M99.6201 145.79C99.5201 145.401 99.3496 145.06 99.2496 144.919C99.085 144.702 99.0026 144.631 98.4617 144.631H97.7384V149.112C97.7384 149.882 97.8266 149.953 98.6851 150.017V150.335H95.698V150.017C96.5271 149.953 96.6035 149.888 96.6035 149.112V144.631H95.9332C95.4098 144.631 95.2569 144.708 95.0864 144.949C94.9629 145.131 94.8512 145.431 94.7277 145.795H94.3984C94.4631 145.149 94.5219 144.461 94.5454 143.984H94.8042C94.9453 144.202 95.057 144.214 95.3334 144.214H99.085C99.3437 144.214 99.4554 144.167 99.6083 143.984H99.867C99.867 144.396 99.9082 145.172 99.9552 145.76L99.6259 145.79H99.6201Z" fill="white"/>
<path d="M106.663 150.397C106.587 150.397 106.475 150.397 106.357 150.385C105.34 150.332 104.987 150.103 104.658 149.644C104.293 149.139 103.994 148.556 103.682 148.027C103.523 147.757 103.394 147.698 103.029 147.698H102.794V149.103C102.794 149.879 102.894 149.938 103.611 150.021V150.338H100.859V150.021C101.6 149.944 101.677 149.879 101.677 149.103V145.446C101.677 144.681 101.577 144.605 100.859 144.54V144.223H103.476C104.258 144.223 104.734 144.311 105.111 144.57C105.493 144.822 105.746 145.24 105.746 145.816C105.746 146.645 105.205 147.11 104.558 147.374C104.711 147.663 105.087 148.28 105.369 148.709C105.705 149.221 105.905 149.468 106.093 149.685C106.322 149.938 106.463 150.026 106.716 150.109L106.657 150.409L106.663 150.397ZM103.117 147.327C103.553 147.327 103.864 147.257 104.082 147.075C104.411 146.81 104.552 146.445 104.552 145.951C104.552 144.952 103.946 144.587 103.347 144.587C103.088 144.587 102.953 144.623 102.888 144.681C102.817 144.74 102.794 144.846 102.794 145.058V147.327H103.117Z" fill="white"/>
<path d="M110.841 150.333V150.015C111.441 149.933 111.465 149.833 111.335 149.445C111.229 149.133 111.065 148.692 110.906 148.239H109.001C108.883 148.574 108.748 148.939 108.636 149.262C108.436 149.862 108.63 149.939 109.383 150.015V150.333H107.113V150.015C107.707 149.939 107.854 149.862 108.178 149.051L110.13 144.158L110.53 144.082C111.129 145.711 111.77 147.422 112.376 149.016C112.705 149.874 112.794 149.939 113.423 150.015V150.333H110.835H110.841ZM109.971 145.652C109.689 146.375 109.407 147.087 109.154 147.792H110.741L109.971 145.652Z" fill="white"/>
<path d="M119.714 148.759C119.584 149.223 119.337 149.923 119.19 150.241C118.938 150.299 118.179 150.482 117.462 150.482C115.027 150.482 113.945 148.9 113.945 147.347C113.945 145.407 115.421 144.09 117.626 144.09C118.444 144.09 119.143 144.278 119.408 144.313C119.449 144.748 119.52 145.401 119.584 145.83L119.237 145.895C119.043 145.195 118.779 144.837 118.291 144.637C118.056 144.537 117.703 144.49 117.415 144.49C115.986 144.49 115.251 145.63 115.251 147.136C115.251 148.894 116.156 150.058 117.526 150.058C118.379 150.058 118.885 149.635 119.385 148.629L119.714 148.753V148.759Z" fill="white"/>
<path d="M125.905 145.79C125.805 145.401 125.635 145.06 125.535 144.919C125.37 144.702 125.288 144.631 124.747 144.631H124.024V149.112C124.024 149.882 124.112 149.953 124.97 150.017V150.335H121.983V150.017C122.812 149.953 122.889 149.888 122.889 149.112V144.631H122.218C121.695 144.631 121.542 144.708 121.372 144.949C121.248 145.131 121.136 145.431 121.013 145.795H120.684C120.748 145.149 120.807 144.461 120.831 143.984H121.089C121.23 144.202 121.342 144.214 121.619 144.214H125.37C125.629 144.214 125.741 144.167 125.893 143.984H126.152C126.152 144.396 126.193 145.172 126.24 145.76L125.911 145.79H125.905Z" fill="white"/>
<path d="M127.156 150.33V150.013C127.891 149.942 127.974 149.889 127.974 149.095V145.456C127.974 144.656 127.885 144.597 127.156 144.532V144.215H129.932V144.532C129.197 144.603 129.114 144.662 129.114 145.456V149.095C129.114 149.883 129.197 149.93 129.932 150.013V150.33H127.156Z" fill="white"/>
<path d="M137.549 144.534C136.967 144.605 136.779 144.717 136.75 145.146C136.726 145.493 136.702 145.834 136.702 146.675V150.432H136.232L132.269 145.652V147.857C132.269 148.686 132.292 149.074 132.316 149.344C132.345 149.779 132.557 149.974 133.245 150.015V150.332H130.928V150.015C131.481 149.968 131.71 149.826 131.763 149.38C131.798 149.056 131.816 148.686 131.816 147.851V145.563C131.816 145.269 131.798 145.081 131.622 144.852C131.451 144.617 131.234 144.581 130.816 144.54V144.223H132.504L136.232 148.592V146.681C136.232 145.84 136.22 145.499 136.191 145.175C136.162 144.764 135.991 144.587 135.221 144.54V144.223H137.543V144.54L137.549 144.534Z" fill="white"/>
<path d="M144.674 147.757C144.122 147.845 144.063 147.887 144.063 148.498V149.245C144.063 149.58 144.075 149.898 144.122 150.15C143.604 150.25 142.663 150.468 141.893 150.468C139.706 150.468 138.43 149.127 138.43 147.257C138.43 145.188 140.117 144.082 142.075 144.082C142.905 144.082 143.692 144.27 143.998 144.305C144.016 144.699 144.081 145.364 144.151 145.905L143.816 145.97C143.593 145.17 143.269 144.788 142.681 144.588C142.464 144.511 142.105 144.47 141.852 144.47C140.605 144.47 139.723 145.458 139.723 147.116C139.723 148.774 140.37 150.086 142.017 150.086C142.252 150.086 142.511 150.045 142.687 149.945C142.846 149.85 142.94 149.709 142.94 149.386V148.575C142.94 147.904 142.828 147.839 141.999 147.751V147.428H144.674V147.751V147.757Z" fill="white"/>
<path d="M156.534 144.534C155.864 144.623 155.752 144.74 155.487 145.51C155.217 146.31 154.499 148.598 153.929 150.438H153.476C152.994 149.044 152.424 147.504 151.906 146.098C151.395 147.592 150.895 149.044 150.436 150.438H149.972C149.56 149.009 148.984 147.127 148.46 145.469C148.219 144.734 148.096 144.599 147.508 144.54V144.223H150.172V144.54C149.472 144.611 149.448 144.734 149.584 145.222C149.913 146.369 150.26 147.527 150.595 148.656C151.089 147.269 151.577 145.775 152.03 144.287H152.459C152.982 145.781 153.512 147.216 154.041 148.668C154.405 147.568 154.887 145.963 155.046 145.328C155.181 144.775 155.093 144.623 154.288 144.546V144.229H156.534V144.546V144.534Z" fill="white"/>
<path d="M156.905 150.448C156.499 150.448 156.211 150.149 156.211 149.725C156.211 149.302 156.499 149.008 156.905 149.008C157.311 149.008 157.616 149.314 157.616 149.725C157.616 150.137 157.322 150.448 156.905 150.448Z" fill="white"/>
<path d="M163.529 148.707C163.459 149.072 163.188 150.066 163.1 150.33H158.531V150.013C159.372 149.948 159.443 149.889 159.443 149.095V145.456C159.443 144.662 159.349 144.597 158.625 144.532V144.215H161.418V144.532C160.678 144.603 160.578 144.656 160.578 145.456V149.172C160.578 149.707 160.619 149.907 161.142 149.919C161.16 149.919 161.677 149.93 161.718 149.93C162.236 149.93 162.377 149.836 162.6 149.589C162.8 149.384 163.03 148.984 163.188 148.613L163.524 148.713L163.529 148.707Z" fill="white"/>
<path d="M165.19 150.448C164.784 150.448 164.496 150.149 164.496 149.725C164.496 149.302 164.784 149.008 165.19 149.008C165.596 149.008 165.901 149.314 165.901 149.725C165.901 150.137 165.607 150.448 165.19 150.448Z" fill="white"/>
<path d="M171.807 148.707C171.736 149.072 171.466 150.066 171.378 150.33H166.809V150.013C167.649 149.948 167.72 149.889 167.72 149.095V145.456C167.72 144.662 167.626 144.597 166.903 144.532V144.215H169.696V144.532C168.955 144.603 168.855 144.656 168.855 145.456V149.172C168.855 149.707 168.896 149.907 169.419 149.919C169.437 149.919 169.955 149.93 169.996 149.93C170.513 149.93 170.654 149.836 170.878 149.589C171.078 149.384 171.307 148.984 171.466 148.613L171.801 148.713L171.807 148.707Z" fill="white"/>
<path d="M89.6756 36.3369L102.324 48.0632V83.6528L107.245 80.972V52.173L114.476 58.5936V77.0345L119.524 74.2879V36.7018L87.7499 18.3572V7.16797L129.218 31.1072V79.8572L89.6756 101.845V36.3369ZM44.7617 79.8572V31.1072L86.2296 7.16797V18.3572L54.456 36.7018V74.2828L59.5033 77.0295V58.5886L66.7347 52.168V80.967L71.6553 83.6477V48.0632L84.304 36.3369V101.845L44.7617 79.8572Z" fill="url(#paint0_linear_1977_30104)"/>
</g>
<defs>
<linearGradient id="paint0_linear_1977_30104" x1="44.7617" y1="54.5041" x2="129.218" y2="54.5041" gradientUnits="userSpaceOnUse">
<stop stop-color="#A47715"/>
<stop offset="0.23" stop-color="#C7992B"/>
<stop offset="0.41" stop-color="#DAB461"/>
<stop offset="0.59" stop-color="#B68F3A"/>
<stop offset="0.77" stop-color="#CBA147"/>
</linearGradient>
<clipPath id="clip0_1977_30104">
<rect width="174" height="150" fill="white" transform="translate(0 0.480469)"/>
</clipPath>
</defs>
</svg>
