<svg width="214" height="50" viewBox="0 0 214 50" fill="none" xmlns="http://www.w3.org/2000/svg">
<path d="M22.7975 15.8935L29.111 21.7467V39.511L31.5671 38.1729V23.7981L35.1766 27.0029V36.2076L37.6959 34.8366V16.0756L21.8363 6.91902V1.33398L42.5348 13.2831V37.6165L22.7975 48.5918V15.8935ZM0.378906 37.6165V13.2831L21.0774 1.33398V6.91902L5.21775 16.0756V34.8341L7.73709 36.205V27.0003L11.3466 23.7955V38.1704L13.8027 39.5085V21.7467L20.1162 15.8935V48.5918L0.378906 37.6165Z" fill="url(#paint0_linear_1914_30139)"/>
<path d="M20.6985 1.98914V6.69899L5.21826 15.6381L4.83885 15.8581V35.0617L5.23344 35.2767L6.99394 36.2354L8.11702 36.8475V27.1749L10.9677 24.6429V38.4006L11.3623 38.6156L13.0596 39.5389L14.1826 40.151V21.9136L19.7373 16.7637V47.9468L0.758836 37.3939V13.5032L20.6985 1.98914ZM22.2162 1.98914L42.1559 13.5007V37.3914L23.1774 47.9442V16.7637L28.7321 21.9136V40.151L29.8551 39.5389L31.5524 38.6156L31.947 38.4006V24.6429L34.7977 27.1749V36.8475L35.9208 36.2354L37.6813 35.2767L38.0759 35.0617V15.8581L37.6964 15.6381L22.2162 6.69899V1.98914ZM21.4574 0.673828L0 13.0631V37.8391L20.4962 49.2343V15.0259L13.4238 21.5823V38.8711L11.7265 37.9478V22.9533L7.35818 26.8309V35.5676L5.59768 34.609V16.2957L21.4574 7.13911V0.676358V0.673828ZM21.4574 0.673828V7.13911L37.317 16.2957V34.609L35.5565 35.5676V26.8309L31.1882 22.9533V37.9478L29.4909 38.8711V21.5823L22.4185 15.0259V49.2368L42.9147 37.8416V13.0631L21.4574 0.676358V0.673828Z" fill="#333333"/>
<path d="M57.2734 29.1917V10.373H63.8627C66.1482 10.373 67.8773 10.8094 69.0555 11.6876C70.2337 12.5658 70.8283 13.8422 70.8283 15.5332C70.8283 16.455 70.5937 17.2677 70.1192 17.9714C69.6446 18.675 68.9846 19.1878 68.1446 19.5151C69.1101 19.7551 69.8683 20.2405 70.4246 20.9769C70.981 21.7078 71.2592 22.6079 71.2592 23.6661C71.2592 25.477 70.681 26.8461 69.5246 27.7734C68.3682 28.7062 66.7264 29.1807 64.5881 29.1971H57.2734V29.1917ZM61.1517 18.2605H64.0209C65.9736 18.2278 66.9555 17.4478 66.9555 15.9204C66.9555 15.0695 66.71 14.4531 66.2136 14.0768C65.7173 13.7004 64.9372 13.5149 63.8681 13.5149H61.1572V18.255L61.1517 18.2605ZM61.1517 20.9987V26.077H64.4736C65.3845 26.077 66.0991 25.8588 66.6118 25.4225C67.1246 24.9861 67.3809 24.3861 67.3809 23.6224C67.3809 21.8988 66.4918 21.026 64.7081 20.9987H61.1517Z" fill="#333333"/>
<path d="M81.1336 22.3024H78.0462V29.1917H74.168V10.373H81.1609C83.3809 10.373 85.0991 10.8694 86.3046 11.8567C87.5101 12.8495 88.1156 14.2459 88.1156 16.0568C88.1156 17.3387 87.8374 18.4132 87.281 19.2696C86.7246 20.126 85.8846 20.8078 84.7555 21.3151L88.8247 29.0062V29.1862H84.6627L81.1336 22.2969V22.3024ZM78.0462 19.1605H81.1718C82.1481 19.1605 82.9009 18.9151 83.4354 18.4187C83.97 17.9223 84.2373 17.2405 84.2373 16.3677C84.2373 15.495 83.9864 14.7804 83.4791 14.2731C82.9773 13.7658 82.2027 13.5095 81.1609 13.5095H78.0462V19.1551V19.1605Z" fill="#333333"/>
<path d="M95.1791 29.1917H91.3008V10.373H95.1791V29.1917Z" fill="#333333"/>
<path d="M113.546 22.9224C113.398 24.9461 112.651 26.5388 111.304 27.7061C109.956 28.868 108.178 29.4516 105.974 29.4516C103.564 29.4516 101.665 28.6389 100.28 27.0134C98.8943 25.3879 98.207 23.1624 98.207 20.326V19.175C98.207 17.3641 98.5234 15.7713 99.1616 14.3913C99.7998 13.0113 100.711 11.9531 101.894 11.2167C103.078 10.4803 104.458 10.1094 106.024 10.1094C108.195 10.1094 109.945 10.693 111.271 11.8549C112.596 13.0167 113.366 14.6531 113.573 16.7532H109.695C109.602 15.5368 109.264 14.6586 108.68 14.1131C108.096 13.5676 107.213 13.2949 106.024 13.2949C104.731 13.2949 103.765 13.7585 103.122 14.6858C102.478 15.6131 102.151 17.0477 102.134 18.995V20.4187C102.134 22.4533 102.445 23.937 103.062 24.8752C103.678 25.8134 104.649 26.2825 105.974 26.2825C107.175 26.2825 108.064 26.0097 108.658 25.4643C109.253 24.9188 109.585 24.0733 109.673 22.9224H113.551H113.546Z" fill="#333333"/>
<path d="M121.979 21.6463L119.96 23.8173V29.1956H116.082V10.377H119.96V18.9081L121.668 16.568L126.462 10.377H131.23L124.548 18.739L131.421 29.1956H126.806L121.973 21.6463H121.979Z" fill="#333333"/>
<path d="M144.542 10.377L149.374 24.0245L154.18 10.377H159.269V29.1956H155.38V24.0518L155.767 15.1716L150.689 29.1956H148.027L142.96 15.188L143.347 24.0518V29.1956H139.469V10.377H144.536H144.542Z" fill="#333333"/>
<path d="M178.122 20.2114C178.122 22.066 177.795 23.686 177.14 25.0824C176.486 26.4788 175.547 27.5534 174.331 28.3116C173.109 29.0698 171.713 29.4462 170.136 29.4462C168.56 29.4462 167.185 29.0698 165.963 28.3225C164.742 27.5698 163.793 26.5007 163.122 25.1097C162.451 23.7188 162.107 22.1151 162.102 20.3096V19.3769C162.102 17.5223 162.434 15.8968 163.105 14.484C163.771 13.0767 164.714 11.9967 165.936 11.2385C167.153 10.4858 168.549 10.1094 170.114 10.1094C171.68 10.1094 173.076 10.4858 174.293 11.2385C175.515 11.9912 176.453 13.0713 177.124 14.484C177.789 15.8913 178.127 17.5168 178.127 19.3605V20.2005L178.122 20.2114ZM174.195 19.3605C174.195 17.3859 173.84 15.8859 173.136 14.8604C172.433 13.8349 171.424 13.3222 170.114 13.3222C168.805 13.3222 167.807 13.8295 167.103 14.8386C166.4 15.8531 166.04 17.3368 166.029 19.2896V20.206C166.029 22.126 166.383 23.6151 167.087 24.6788C167.791 25.7425 168.811 26.2661 170.136 26.2661C171.462 26.2661 172.438 25.7534 173.136 24.7333C173.835 23.7133 174.189 22.2242 174.195 20.266V19.3496V19.3605Z" fill="#333333"/>
<path d="M196.232 29.1917H192.353L184.804 16.8095V29.1917H180.926V10.373H184.804L192.364 22.7824V10.373H196.226V29.1917H196.232Z" fill="#333333"/>
<path d="M199.62 29.1917V10.373H205.408C207.06 10.373 208.544 10.744 209.848 11.4912C211.151 12.2385 212.171 13.2967 212.902 14.6713C213.633 16.0459 213.999 17.6059 213.999 19.3569V20.2242C213.999 21.9751 213.639 23.5297 212.919 24.8879C212.199 26.2516 211.184 27.3043 209.875 28.0516C208.566 28.7989 207.088 29.1807 205.44 29.1862H199.609L199.62 29.1917ZM203.499 13.5149V26.077H205.375C206.891 26.077 208.048 25.5807 208.85 24.5934C209.651 23.6061 210.061 22.1879 210.077 20.3442V19.3514C210.077 17.4368 209.679 15.9914 208.888 15.0041C208.097 14.0168 206.935 13.5258 205.413 13.5258H203.499V13.5149Z" fill="#333333"/>
<path d="M60.6758 35.4519C60.583 35.0919 60.4249 34.7755 60.3321 34.6446C60.1794 34.4428 60.103 34.3773 59.6012 34.3773H58.9303V38.5338C58.9303 39.2484 59.0121 39.3138 59.8085 39.3738V39.6684H57.043V39.3738C57.8121 39.3138 57.883 39.2538 57.883 38.5338V34.3773H57.2612C56.7757 34.3773 56.6339 34.4483 56.4757 34.6719C56.3611 34.841 56.2575 35.1192 56.1429 35.4574H55.832C55.892 34.8574 55.9466 34.2192 55.9684 33.7773H56.2084C56.3393 33.9792 56.443 33.9901 56.6993 33.9901H60.1794C60.4194 33.9901 60.523 33.9464 60.6649 33.7773H60.9049C60.9103 34.1592 60.9431 34.8792 60.9867 35.4246L60.6812 35.4519H60.6758Z" fill="#333333"/>
<path d="M67.2236 39.7215C67.1472 39.7215 67.0491 39.7215 66.94 39.7106C65.9963 39.6615 65.669 39.4488 65.3636 39.0233C65.0254 38.5542 64.7472 38.0142 64.4581 37.5233C64.3108 37.2724 64.1908 37.2179 63.8526 37.2179H63.6344V38.5215C63.6344 39.2415 63.7272 39.2961 64.3926 39.3724V39.667H61.8398V39.3724C62.5271 39.3015 62.598 39.2415 62.598 38.5215V35.1287C62.598 34.4196 62.5053 34.3487 61.8398 34.2887V33.9941H64.2672C64.9926 33.9941 65.4345 34.076 65.7836 34.316C66.1381 34.5505 66.3727 34.9378 66.3727 35.4724C66.3727 36.2415 65.8708 36.6724 65.2708 36.9178C65.4127 37.1851 65.7617 37.7579 66.0236 38.1561C66.3345 38.6306 66.5199 38.8597 66.6945 39.0615C66.9072 39.2961 67.0381 39.3779 67.2727 39.4543L67.2236 39.7324V39.7215ZM63.9344 36.8742C64.3381 36.8742 64.6272 36.8088 64.8235 36.6397C65.129 36.3942 65.2599 36.056 65.2599 35.5978C65.2599 34.6705 64.6981 34.3323 64.1417 34.3323C63.9017 34.3323 63.7763 34.3651 63.7162 34.4196C63.6508 34.4742 63.629 34.5723 63.629 34.7687V36.8742H63.929H63.9344Z" fill="#333333"/>
<path d="M71.095 39.6616V39.367C71.6514 39.2907 71.6732 39.1979 71.5532 38.8379C71.455 38.5488 71.3023 38.1397 71.155 37.7197H69.3877C69.2786 38.0306 69.1531 38.3688 69.0495 38.6688C68.864 39.2252 69.044 39.2961 69.7422 39.367V39.6616H67.6367V39.367C68.1876 39.2961 68.324 39.2252 68.624 38.4725L70.435 33.9342L70.8059 33.8633C71.3623 35.3742 71.9568 36.9615 72.5186 38.4397C72.8241 39.2361 72.9059 39.2961 73.4896 39.367V39.6616H71.0895H71.095ZM70.2877 35.3197C70.0259 35.9906 69.764 36.6506 69.5295 37.3052H71.0022L70.2877 35.3197Z" fill="#333333"/>
<path d="M76.6222 33.9902C77.7786 33.9902 78.5859 34.2302 79.1368 34.7484C79.5732 35.163 79.9059 35.7739 79.9059 36.6412C79.9059 37.6503 79.4859 38.4412 78.815 38.9485C78.1604 39.4394 77.3259 39.6685 76.3058 39.6685H74.0312V39.374C74.724 39.314 74.7894 39.2431 74.7894 38.5231V35.1466C74.7894 34.4048 74.6913 34.3503 74.0312 34.2903V33.9957H76.6222V33.9902ZM75.8422 38.4521C75.8422 39.0849 76.044 39.2867 76.6877 39.2867C78.0023 39.2867 78.7277 38.3758 78.7277 36.7721C78.7277 35.8994 78.4659 35.1739 77.9641 34.7866C77.5877 34.4593 77.1131 34.3448 76.5295 34.3448C76.1804 34.3448 76.0113 34.4102 75.9458 34.4648C75.8695 34.5357 75.8422 34.6666 75.8422 34.9503V38.4576V38.4521Z" fill="#333333"/>
<path d="M80.9062 39.6631V39.3685C81.5881 39.3031 81.6644 39.254 81.6644 38.5176V35.1412C81.6644 34.3993 81.5826 34.3448 80.9062 34.2848V33.9902H83.4809V34.2848C82.799 34.3502 82.7227 34.4048 82.7227 35.1412V38.5176C82.7227 39.2485 82.799 39.2922 83.4809 39.3685V39.6631H80.9062Z" fill="#333333"/>
<path d="M90.5487 34.2832C90.0087 34.3487 89.8342 34.4523 89.8069 34.8505C89.7851 35.1724 89.7633 35.4887 89.7633 36.2687V39.7543H89.3323L85.6559 35.3196V37.3651C85.6559 38.1342 85.6777 38.4942 85.6995 38.7452C85.7268 39.1488 85.9232 39.3288 86.5614 39.367V39.6615H84.4122V39.367C84.925 39.3234 85.1377 39.1924 85.1868 38.7779C85.2195 38.4779 85.2359 38.1342 85.2359 37.3597V35.2378C85.2359 34.9651 85.2195 34.7905 85.0559 34.5778C84.8977 34.3596 84.6959 34.3269 84.3086 34.2887V33.9941H85.8741L89.3323 38.047V36.2742C89.3323 35.4942 89.3214 35.1778 89.2942 34.8778C89.2669 34.496 89.1087 34.3323 88.3887 34.2887V33.9941H90.5433V34.2887L90.5487 34.2832Z" fill="#333333"/>
<path d="M97.1679 37.2724C96.6551 37.3543 96.6006 37.3924 96.6006 37.9597V38.6525C96.6006 38.9634 96.6115 39.2579 96.6551 39.4925C96.1751 39.5852 95.3024 39.787 94.5878 39.787C92.5587 39.787 91.375 38.5434 91.375 36.8088C91.375 34.8888 92.9405 33.8633 94.7569 33.8633C95.526 33.8633 96.2569 34.0378 96.5406 34.0705C96.5569 34.436 96.6169 35.0524 96.6824 35.5542L96.3715 35.6142C96.1642 34.8724 95.8642 34.5178 95.3187 34.3324C95.1169 34.2615 94.7842 34.2233 94.5496 34.2233C93.3932 34.2233 92.575 35.1397 92.575 36.6779C92.575 38.2161 93.175 39.4325 94.7023 39.4325C94.9205 39.4325 95.1605 39.3943 95.3242 39.3016C95.4715 39.2143 95.5587 39.0834 95.5587 38.7834V38.0306C95.5587 37.4088 95.4551 37.3488 94.686 37.267V36.967H97.1679V37.267V37.2724Z" fill="#333333"/>
<path d="M103.025 39.6616V39.367C103.581 39.2907 103.603 39.1979 103.483 38.8379C103.385 38.5488 103.232 38.1397 103.085 37.7197H101.317C101.203 38.0306 101.083 38.3688 100.979 38.6688C100.794 39.2252 100.974 39.2961 101.672 39.367V39.6616H99.5664V39.367C100.117 39.2961 100.254 39.2252 100.554 38.4725L102.365 33.9342L102.736 33.8633C103.292 35.3742 103.887 36.9615 104.448 38.4397C104.754 39.2361 104.836 39.2961 105.419 39.367V39.6616H103.019H103.025ZM102.217 35.3197C101.956 35.9906 101.694 36.6506 101.459 37.3052H102.932L102.217 35.3197Z" fill="#333333"/>
<path d="M112.031 34.2832C111.491 34.3487 111.316 34.4523 111.289 34.8505C111.267 35.1724 111.245 35.4887 111.245 36.2687V39.7543H110.809L107.132 35.3196V37.3651C107.132 38.1342 107.154 38.4942 107.176 38.7452C107.203 39.1488 107.4 39.3288 108.038 39.367V39.6615H105.889V39.367C106.402 39.3234 106.614 39.1924 106.663 38.7779C106.696 38.4779 106.712 38.1342 106.712 37.3597V35.2378C106.712 34.9651 106.696 34.7905 106.532 34.5778C106.374 34.3596 106.172 34.3269 105.785 34.2887V33.9941H107.351L110.809 38.047V36.2742C110.809 35.4942 110.798 35.1778 110.771 34.8778C110.743 34.496 110.585 34.3323 109.865 34.2887V33.9941H112.02V34.2887L112.031 34.2832Z" fill="#333333"/>
<path d="M115.427 33.9902C116.583 33.9902 117.391 34.2302 117.942 34.7484C118.383 35.163 118.711 35.7739 118.711 36.6412C118.711 37.6503 118.291 38.4412 117.62 38.9485C116.965 39.4394 116.131 39.6685 115.111 39.6685H112.836V39.374C113.529 39.314 113.594 39.2431 113.594 38.5231V35.1466C113.594 34.4048 113.496 34.3503 112.836 34.2903V33.9957H115.427V33.9902ZM114.647 38.4521C114.647 39.0849 114.849 39.2867 115.492 39.2867C116.807 39.2867 117.532 38.3758 117.532 36.7721C117.532 35.8994 117.271 35.1739 116.769 34.7866C116.387 34.4593 115.918 34.3448 115.334 34.3448C114.985 34.3448 114.816 34.4102 114.751 34.4648C114.674 34.5357 114.647 34.6666 114.647 34.9503V38.4576V38.4521Z" fill="#333333"/>
<path d="M127.203 38.2021C127.083 38.633 126.853 39.2821 126.717 39.5767C126.483 39.6312 125.779 39.8003 125.113 39.8003C122.855 39.8003 121.852 38.333 121.852 36.893C121.852 35.0929 123.221 33.8711 125.266 33.8711C126.024 33.8711 126.673 34.0456 126.913 34.0784C126.957 34.482 127.017 35.0875 127.077 35.4857L126.755 35.5457C126.575 34.8966 126.33 34.5638 125.877 34.3784C125.659 34.2856 125.332 34.242 125.064 34.242C123.739 34.242 123.057 35.3002 123.057 36.6966C123.057 38.3276 123.897 39.4076 125.168 39.4076C125.959 39.4076 126.428 39.0148 126.892 38.0821L127.197 38.1966L127.203 38.2021Z" fill="#333333"/>
<path d="M131.205 33.8633C132.776 33.8633 134.102 35.0306 134.102 36.7542C134.102 38.6197 132.793 39.7925 131.156 39.7925C129.433 39.7925 128.184 38.5161 128.184 36.847C128.184 35.3306 129.264 33.8633 131.2 33.8633H131.205ZM131.058 34.2287C130.136 34.2287 129.4 35.0851 129.4 36.6615C129.4 38.2379 130.093 39.4325 131.293 39.4325C132.204 39.4325 132.902 38.6361 132.902 37.0052C132.902 35.2378 132.122 34.2287 131.058 34.2287Z" fill="#333333"/>
<path d="M141.171 34.2832C140.631 34.3487 140.457 34.4523 140.43 34.8505C140.408 35.1724 140.386 35.4887 140.386 36.2687V39.7543H139.95L136.273 35.3196V37.3651C136.273 38.1342 136.295 38.4942 136.317 38.7452C136.344 39.1488 136.54 39.3288 137.179 39.367V39.6615H135.029V39.367C135.542 39.3234 135.76 39.1924 135.804 38.7779C135.837 38.4779 135.853 38.1342 135.853 37.3597V35.2378C135.853 34.9651 135.837 34.7905 135.673 34.5778C135.515 34.3596 135.313 34.3269 134.926 34.2887V33.9941H136.491L139.95 38.047V36.2742C139.95 35.4942 139.939 35.1778 139.911 34.8778C139.884 34.496 139.726 34.3323 139.006 34.2887V33.9941H141.16V34.2887L141.171 34.2832Z" fill="#333333"/>
<path d="M146.828 35.4519C146.735 35.0919 146.577 34.7755 146.484 34.6446C146.332 34.4428 146.255 34.3773 145.754 34.3773H145.083V38.5338C145.083 39.2484 145.164 39.3138 145.961 39.3738V39.6684H143.19V39.3738C143.959 39.3138 144.03 39.2538 144.03 38.5338V34.3773H143.408C142.923 34.3773 142.781 34.4483 142.623 34.6719C142.508 34.841 142.404 35.1192 142.29 35.4574H141.984C142.044 34.8574 142.099 34.2192 142.121 33.7773H142.361C142.492 33.9792 142.595 33.9901 142.852 33.9901H146.332C146.572 33.9901 146.675 33.9464 146.817 33.7773H147.057C147.057 34.1592 147.095 34.8792 147.139 35.4246L146.834 35.4519H146.828Z" fill="#333333"/>
<path d="M153.372 39.7215C153.301 39.7215 153.197 39.7215 153.088 39.7106C152.145 39.6615 151.817 39.4488 151.512 39.0233C151.174 38.5542 150.896 38.0142 150.607 37.5233C150.459 37.2724 150.339 37.2179 150.001 37.2179H149.783V38.5215C149.783 39.2415 149.876 39.2961 150.541 39.3724V39.667H147.988V39.3724C148.676 39.3015 148.746 39.2415 148.746 38.5215V35.1287C148.746 34.4196 148.654 34.3487 147.988 34.2887V33.9941H150.416C151.141 33.9941 151.583 34.076 151.932 34.316C152.287 34.5505 152.521 34.9378 152.521 35.4724C152.521 36.2415 152.019 36.6724 151.419 36.9178C151.561 37.1851 151.91 37.7579 152.172 38.1561C152.483 38.6306 152.668 38.8597 152.843 39.0615C153.056 39.2961 153.187 39.3779 153.421 39.4543L153.367 39.7324L153.372 39.7215ZM150.083 36.8742C150.487 36.8742 150.776 36.8088 150.977 36.6397C151.283 36.3942 151.414 36.056 151.414 35.5978C151.414 34.6705 150.852 34.3323 150.296 34.3323C150.056 34.3323 149.93 34.3651 149.87 34.4196C149.805 34.4742 149.783 34.5723 149.783 34.7687V36.8742H150.083Z" fill="#333333"/>
<path d="M157.24 39.6616V39.367C157.796 39.2907 157.818 39.1979 157.698 38.8379C157.6 38.5488 157.447 38.1397 157.3 37.7197H155.532C155.423 38.0306 155.298 38.3688 155.194 38.6688C155.009 39.2252 155.189 39.2961 155.887 39.367V39.6616H153.781V39.367C154.332 39.2961 154.469 39.2252 154.769 38.4725L156.579 33.9342L156.95 33.8633C157.507 35.3742 158.101 36.9615 158.663 38.4397C158.969 39.2361 159.05 39.2961 159.634 39.367V39.6616H157.234H157.24ZM156.432 35.3197C156.17 35.9906 155.909 36.6506 155.674 37.3052H157.147L156.432 35.3197Z" fill="#333333"/>
<path d="M165.468 38.2021C165.348 38.633 165.119 39.2821 164.983 39.5767C164.748 39.6312 164.045 39.8003 163.379 39.8003C161.121 39.8003 160.117 38.333 160.117 36.893C160.117 35.0929 161.486 33.8711 163.532 33.8711C164.29 33.8711 164.939 34.0456 165.185 34.0784C165.223 34.482 165.288 35.0875 165.348 35.4857L165.026 35.5457C164.846 34.8966 164.601 34.5638 164.148 34.3784C163.93 34.2856 163.603 34.242 163.335 34.242C162.01 34.242 161.328 35.3002 161.328 36.6966C161.328 38.3276 162.168 39.4076 163.439 39.4076C164.23 39.4076 164.699 39.0148 165.163 38.0821L165.468 38.1966V38.2021Z" fill="#333333"/>
<path d="M171.215 35.4519C171.122 35.0919 170.964 34.7755 170.871 34.6446C170.718 34.4428 170.642 34.3773 170.14 34.3773H169.469V38.5338C169.469 39.2484 169.551 39.3138 170.348 39.3738V39.6684H167.577V39.3738C168.346 39.3138 168.417 39.2538 168.417 38.5338V34.3773H167.795C167.309 34.3773 167.167 34.4483 167.009 34.6719C166.895 34.841 166.791 35.1192 166.677 35.4574H166.371C166.431 34.8574 166.486 34.2192 166.507 33.7773H166.747C166.878 33.9792 166.982 33.9901 167.238 33.9901H170.718C170.958 33.9901 171.062 33.9464 171.204 33.7773H171.444C171.444 34.1592 171.482 34.8792 171.526 35.4246L171.22 35.4519H171.215Z" fill="#333333"/>
<path d="M172.367 39.6631V39.3685C173.049 39.3031 173.125 39.254 173.125 38.5176V35.1412C173.125 34.3993 173.044 34.3448 172.367 34.2848V33.9902H174.942V34.2848C174.26 34.3502 174.184 34.4048 174.184 35.1412V38.5176C174.184 39.2485 174.26 39.2922 174.942 39.3685V39.6631H172.367Z" fill="#333333"/>
<path d="M182.011 34.2832C181.471 34.3487 181.297 34.4523 181.269 34.8505C181.248 35.1724 181.226 35.4887 181.226 36.2687V39.7543H180.789L177.113 35.3196V37.3651C177.113 38.1342 177.135 38.4942 177.157 38.7452C177.184 39.1488 177.38 39.3288 178.018 39.367V39.6615H175.869V39.367C176.382 39.3234 176.595 39.1924 176.644 38.7779C176.677 38.4779 176.693 38.1342 176.693 37.3597V35.2378C176.693 34.9651 176.677 34.7905 176.513 34.5778C176.355 34.3596 176.153 34.3269 175.766 34.2887V33.9941H177.331L180.789 38.047V36.2742C180.789 35.4942 180.778 35.1778 180.751 34.8778C180.724 34.496 180.566 34.3323 179.851 34.2887V33.9941H182.006V34.2887L182.011 34.2832Z" fill="#333333"/>
<path d="M188.625 37.2724C188.112 37.3543 188.058 37.3924 188.058 37.9597V38.6525C188.058 38.9634 188.069 39.2579 188.112 39.4925C187.632 39.5852 186.759 39.787 186.045 39.787C184.016 39.787 182.832 38.5434 182.832 36.8088C182.832 34.8888 184.398 33.8633 186.214 33.8633C186.983 33.8633 187.714 34.0378 187.998 34.0705C188.014 34.436 188.074 35.0524 188.139 35.5542L187.829 35.6142C187.621 34.8724 187.321 34.5178 186.776 34.3324C186.574 34.2615 186.241 34.2233 186.007 34.2233C184.85 34.2233 184.032 35.1397 184.032 36.6779C184.032 38.2161 184.632 39.4325 186.159 39.4325C186.378 39.4325 186.618 39.3943 186.781 39.3016C186.928 39.2143 187.016 39.0834 187.016 38.7834V38.0306C187.016 37.4088 186.912 37.3488 186.143 37.267V36.967H188.625V37.267V37.2724Z" fill="#333333"/>
<path d="M199.627 34.2832C199.005 34.3651 198.901 34.4742 198.656 35.1887C198.405 35.9305 197.74 38.0524 197.21 39.7597H196.79C196.343 38.467 195.814 37.0378 195.334 35.7342C194.859 37.1197 194.396 38.467 193.97 39.7597H193.539C193.158 38.4342 192.623 36.6887 192.138 35.1505C191.914 34.4687 191.799 34.3432 191.254 34.2887V33.9941H193.725V34.2887C193.076 34.3542 193.054 34.4687 193.179 34.9214C193.485 35.9851 193.807 37.0597 194.118 38.107C194.576 36.8197 195.029 35.4342 195.449 34.0541H195.847C196.332 35.4396 196.823 36.7706 197.314 38.1179C197.652 37.0978 198.1 35.6087 198.247 35.0196C198.372 34.5069 198.29 34.3651 197.543 34.2941V33.9996H199.627V34.2941V34.2832Z" fill="#333333"/>
<path d="M199.972 39.7719C199.595 39.7719 199.328 39.4938 199.328 39.101C199.328 38.7083 199.595 38.4355 199.972 38.4355C200.348 38.4355 200.632 38.7192 200.632 39.101C200.632 39.4828 200.359 39.7719 199.972 39.7719Z" fill="#333333"/>
<path d="M206.109 38.1576C206.044 38.4958 205.793 39.4176 205.711 39.6631H201.473V39.3685C202.253 39.3085 202.318 39.254 202.318 38.5176V35.1412C202.318 34.4048 202.231 34.3448 201.56 34.2848V33.9902H204.151V34.2848C203.464 34.3502 203.371 34.3993 203.371 35.1412V38.5885C203.371 39.0849 203.409 39.2704 203.895 39.2813C203.911 39.2813 204.391 39.2922 204.429 39.2922C204.909 39.2922 205.04 39.2049 205.247 38.9758C205.433 38.7849 205.645 38.414 205.793 38.0703L206.104 38.1631L206.109 38.1576Z" fill="#333333"/>
<path d="M207.651 39.7719C207.275 39.7719 207.008 39.4938 207.008 39.101C207.008 38.7083 207.275 38.4355 207.651 38.4355C208.028 38.4355 208.311 38.7192 208.311 39.101C208.311 39.4828 208.039 39.7719 207.651 39.7719Z" fill="#333333"/>
<path d="M213.797 38.1576C213.731 38.4958 213.48 39.4176 213.398 39.6631H209.16V39.3685C209.94 39.3085 210.006 39.254 210.006 38.5176V35.1412C210.006 34.4048 209.918 34.3448 209.247 34.2848V33.9902H211.838V34.2848C211.151 34.3502 211.058 34.3993 211.058 35.1412V38.5885C211.058 39.0849 211.097 39.2704 211.582 39.2813C211.598 39.2813 212.078 39.2922 212.117 39.2922C212.597 39.2922 212.728 39.2049 212.935 38.9758C213.12 38.7849 213.333 38.414 213.48 38.0703L213.791 38.1631L213.797 38.1576Z" fill="#333333"/>
<defs>
<linearGradient id="paint0_linear_1914_30139" x1="0.378906" y1="24.9616" x2="42.5348" y2="24.9616" gradientUnits="userSpaceOnUse">
<stop stop-color="#A47715"/>
<stop offset="0.23" stop-color="#C7992B"/>
<stop offset="0.41" stop-color="#DAB461"/>
<stop offset="0.59" stop-color="#B68F3A"/>
<stop offset="0.77" stop-color="#CBA147"/>
</linearGradient>
</defs>
</svg>
