<svg width="214" height="49" viewBox="0 0 214 49" fill="none" xmlns="http://www.w3.org/2000/svg">
<path d="M22.7975 15.2197L29.111 21.0728V38.8372L31.5671 37.4991V23.1242L35.1766 26.3291V35.5337L37.6959 34.1628V15.4018L21.8363 6.24519V0.660156L42.5348 12.6093V36.9426L22.7975 47.9179V15.2197ZM0.378906 36.9426V12.6093L21.0774 0.660156V6.24519L5.21775 15.4018V34.1602L7.73709 35.5312V26.3265L11.3466 23.1217V37.4966L13.8027 38.8347V21.0728L20.1162 15.2197V47.9179L0.378906 36.9426Z" fill="url(#paint0_linear_2040_29961)"/>
<path d="M20.6985 1.31532V6.02516L5.21826 14.9642L4.83885 15.1843V34.3879L5.23344 34.6029L6.99394 35.5616L8.11702 36.1737V26.5011L10.9677 23.9691V37.7268L11.3623 37.9418L13.0596 38.865L14.1826 39.4772V21.2398L19.7373 16.0898V47.2729L0.758836 36.7201V12.8294L20.6985 1.31532ZM22.2162 1.31532L42.1559 12.8269V36.7175L23.1774 47.2704V16.0898L28.7321 21.2398V39.4772L29.8551 38.865L31.5524 37.9418L31.947 37.7268V23.9691L34.7977 26.5011V36.1737L35.9208 35.5616L37.6813 34.6029L38.0759 34.3879V15.1843L37.6964 14.9642L22.2162 6.02516V1.31532ZM21.4574 0L0 12.3893V37.1653L20.4962 48.5604V14.3521L13.4238 20.9085V38.1973L11.7265 37.274V22.2794L7.35818 26.1571V34.8938L5.59768 33.9351V15.6219L21.4574 6.46528V0.00252945V0ZM21.4574 0V6.46528L37.317 15.6219V33.9351L35.5565 34.8938V26.1571L31.1882 22.2794V37.274L29.4909 38.1973V20.9085L22.4185 14.3521V48.563L42.9147 37.1678V12.3893L21.4574 0.00252945V0Z" fill="white"/>
<path d="M57.2734 28.5178V9.69922H63.8627C66.1482 9.69922 67.8773 10.1356 69.0555 11.0138C70.2337 11.892 70.8283 13.1684 70.8283 14.8593C70.8283 15.7812 70.5937 16.5939 70.1192 17.2976C69.6446 18.0012 68.9846 18.514 68.1446 18.8412C69.1101 19.0812 69.8683 19.5667 70.4246 20.3031C70.981 21.034 71.2592 21.934 71.2592 22.9922C71.2592 24.8032 70.681 26.1723 69.5246 27.0996C68.3682 28.0324 66.7264 28.5069 64.5881 28.5233H57.2734V28.5178ZM61.1517 17.5867H64.0209C65.9736 17.5539 66.9555 16.7739 66.9555 15.2466C66.9555 14.3957 66.71 13.7793 66.2136 13.4029C65.7173 13.0266 64.9372 12.8411 63.8681 12.8411H61.1572V17.5812L61.1517 17.5867ZM61.1517 20.3249V25.4032H64.4736C65.3845 25.4032 66.0991 25.185 66.6118 24.7486C67.1246 24.3123 67.3809 23.7123 67.3809 22.9486C67.3809 21.2249 66.4918 20.3522 64.7081 20.3249H61.1517Z" fill="white"/>
<path d="M81.1336 21.6286H78.0462V28.5178H74.168V9.69922H81.1609C83.3809 9.69922 85.0991 10.1956 86.3046 11.1829C87.5101 12.1756 88.1156 13.572 88.1156 15.383C88.1156 16.6648 87.8374 17.7394 87.281 18.5958C86.7246 19.4522 85.8846 20.134 84.7555 20.6413L88.8247 28.3324V28.5124H84.6627L81.1336 21.6231V21.6286ZM78.0462 18.4867H81.1718C82.1481 18.4867 82.9009 18.2412 83.4354 17.7449C83.97 17.2485 84.2373 16.5666 84.2373 15.6939C84.2373 14.8211 83.9864 14.1066 83.4791 13.5993C82.9773 13.092 82.2027 12.8357 81.1609 12.8357H78.0462V18.4812V18.4867Z" fill="white"/>
<path d="M95.1791 28.5178H91.3008V9.69922H95.1791V28.5178Z" fill="white"/>
<path d="M113.546 22.2486C113.398 24.2722 112.651 25.865 111.304 27.0323C109.956 28.1942 108.178 28.7778 105.974 28.7778C103.564 28.7778 101.665 27.9651 100.28 26.3396C98.8943 24.7141 98.207 22.4886 98.207 19.6521V18.5012C98.207 16.6903 98.5234 15.0975 99.1616 13.7175C99.7998 12.3374 100.711 11.2792 101.894 10.5428C103.078 9.80646 104.458 9.43555 106.024 9.43555C108.195 9.43555 109.945 10.0192 111.271 11.181C112.596 12.3429 113.366 13.9793 113.573 16.0793H109.695C109.602 14.8629 109.264 13.9847 108.68 13.4393C108.096 12.8938 107.213 12.6211 106.024 12.6211C104.731 12.6211 103.765 13.0847 103.122 14.012C102.478 14.9393 102.151 16.3739 102.134 18.3212V19.7449C102.134 21.7795 102.445 23.2631 103.062 24.2013C103.678 25.1395 104.649 25.6086 105.974 25.6086C107.175 25.6086 108.064 25.3359 108.658 24.7904C109.253 24.245 109.585 23.3995 109.673 22.2486H113.551H113.546Z" fill="white"/>
<path d="M121.979 20.9725L119.96 23.1434V28.5217H116.082V9.70312H119.96V18.2342L121.668 15.8942L126.462 9.70312H131.23L124.548 18.0651L131.421 28.5217H126.806L121.973 20.9725H121.979Z" fill="white"/>
<path d="M144.542 9.70312L149.374 23.3507L154.18 9.70312H159.269V28.5217H155.38V23.378L155.767 14.4978L150.689 28.5217H148.027L142.96 14.5141L143.347 23.378V28.5217H139.469V9.70312H144.536H144.542Z" fill="white"/>
<path d="M178.122 19.5376C178.122 21.3922 177.795 23.0122 177.14 24.4086C176.486 25.805 175.547 26.8796 174.331 27.6378C173.109 28.396 171.713 28.7724 170.136 28.7724C168.56 28.7724 167.185 28.396 165.963 27.6487C164.742 26.896 163.793 25.8268 163.122 24.4359C162.451 23.0449 162.107 21.4413 162.102 19.6358V18.703C162.102 16.8484 162.434 15.223 163.105 13.8102C163.771 12.4029 164.714 11.3229 165.936 10.5647C167.153 9.81192 168.549 9.43555 170.114 9.43555C171.68 9.43555 173.076 9.81192 174.293 10.5647C175.515 11.3174 176.453 12.3974 177.124 13.8102C177.789 15.2175 178.127 16.843 178.127 18.6867V19.5267L178.122 19.5376ZM174.195 18.6867C174.195 16.7121 173.84 15.212 173.136 14.1866C172.433 13.1611 171.424 12.6483 170.114 12.6483C168.805 12.6483 167.807 13.1556 167.103 14.1647C166.4 15.1793 166.04 16.663 166.029 18.6158V19.5321C166.029 21.4522 166.383 22.9413 167.087 24.005C167.791 25.0686 168.811 25.5923 170.136 25.5923C171.462 25.5923 172.438 25.0795 173.136 24.0595C173.835 23.0395 174.189 21.5504 174.195 19.5921V18.6758V18.6867Z" fill="white"/>
<path d="M196.232 28.5178H192.353L184.804 16.1357V28.5178H180.926V9.69922H184.804L192.364 22.1086V9.69922H196.226V28.5178H196.232Z" fill="white"/>
<path d="M199.62 28.5178V9.69922H205.408C207.06 9.69922 208.544 10.0701 209.848 10.8174C211.151 11.5647 212.171 12.6229 212.902 13.9975C213.633 15.3721 213.999 16.9321 213.999 18.683V19.5503C213.999 21.3013 213.639 22.8559 212.919 24.2141C212.199 25.5778 211.184 26.6305 209.875 27.3778C208.566 28.1251 207.088 28.5069 205.44 28.5124H199.609L199.62 28.5178ZM203.499 12.8411V25.4032H205.375C206.891 25.4032 208.048 24.9068 208.85 23.9195C209.651 22.9322 210.061 21.514 210.077 19.6704V18.6776C210.077 16.763 209.679 15.3175 208.888 14.3302C208.097 13.3429 206.935 12.852 205.413 12.852H203.499V12.8411Z" fill="white"/>
<path d="M60.6758 34.7781C60.583 34.4181 60.4249 34.1017 60.3321 33.9708C60.1794 33.769 60.103 33.7035 59.6012 33.7035H58.9303V37.86C58.9303 38.5745 59.0121 38.64 59.8085 38.7V38.9946H57.043V38.7C57.8121 38.64 57.883 38.58 57.883 37.86V33.7035H57.2612C56.7757 33.7035 56.6339 33.7744 56.4757 33.9981C56.3611 34.1672 56.2575 34.4454 56.1429 34.7835H55.832C55.892 34.1835 55.9466 33.5453 55.9684 33.1035H56.2084C56.3393 33.3053 56.443 33.3162 56.6993 33.3162H60.1794C60.4194 33.3162 60.523 33.2726 60.6649 33.1035H60.9049C60.9103 33.4853 60.9431 34.2054 60.9867 34.7508L60.6812 34.7781H60.6758Z" fill="white"/>
<path d="M67.2236 39.0477C67.1472 39.0477 67.0491 39.0477 66.94 39.0368C65.9963 38.9877 65.669 38.775 65.3636 38.3495C65.0254 37.8804 64.7472 37.3404 64.4581 36.8495C64.3108 36.5986 64.1908 36.544 63.8526 36.544H63.6344V37.8477C63.6344 38.5677 63.7272 38.6222 64.3926 38.6986V38.9932H61.8398V38.6986C62.5271 38.6277 62.598 38.5677 62.598 37.8477V34.4549C62.598 33.7458 62.5053 33.6749 61.8398 33.6149V33.3203H64.2672C64.9926 33.3203 65.4345 33.4021 65.7836 33.6421C66.1381 33.8767 66.3727 34.264 66.3727 34.7985C66.3727 35.5676 65.8708 35.9985 65.2708 36.244C65.4127 36.5113 65.7617 37.084 66.0236 37.4822C66.3345 37.9568 66.5199 38.1859 66.6945 38.3877C66.9072 38.6223 67.0381 38.7041 67.2727 38.7804L67.2236 39.0586V39.0477ZM63.9344 36.2004C64.3381 36.2004 64.6272 36.1349 64.8235 35.9658C65.129 35.7204 65.2599 35.3822 65.2599 34.924C65.2599 33.9967 64.6981 33.6585 64.1417 33.6585C63.9017 33.6585 63.7763 33.6912 63.7162 33.7458C63.6508 33.8003 63.629 33.8985 63.629 34.0949V36.2004H63.929H63.9344Z" fill="white"/>
<path d="M71.095 38.9878V38.6932C71.6514 38.6168 71.6732 38.5241 71.5532 38.1641C71.455 37.875 71.3023 37.4659 71.155 37.0459H69.3877C69.2786 37.3568 69.1531 37.695 69.0495 37.995C68.864 38.5514 69.044 38.6223 69.7422 38.6932V38.9878H67.6367V38.6932C68.1876 38.6223 68.324 38.5514 68.624 37.7986L70.435 33.2603L70.8059 33.1895C71.3623 34.7004 71.9568 36.2877 72.5186 37.7659C72.8241 38.5623 72.9059 38.6223 73.4896 38.6932V38.9878H71.0895H71.095ZM70.2877 34.6458C70.0259 35.3168 69.764 35.9768 69.5295 36.6313H71.0022L70.2877 34.6458Z" fill="white"/>
<path d="M76.6222 33.3164C77.7786 33.3164 78.5859 33.5564 79.1368 34.0746C79.5732 34.4892 79.9059 35.1001 79.9059 35.9674C79.9059 36.9765 79.4859 37.7674 78.815 38.2747C78.1604 38.7656 77.3259 38.9947 76.3058 38.9947H74.0312V38.7002C74.724 38.6402 74.7894 38.5693 74.7894 37.8492V34.4728C74.7894 33.731 74.6913 33.6764 74.0312 33.6164V33.3219H76.6222V33.3164ZM75.8422 37.7783C75.8422 38.4111 76.044 38.6129 76.6877 38.6129C78.0023 38.6129 78.7277 37.702 78.7277 36.0983C78.7277 35.2255 78.4659 34.5001 77.9641 34.1128C77.5877 33.7855 77.1131 33.671 76.5295 33.671C76.1804 33.671 76.0113 33.7364 75.9458 33.791C75.8695 33.8619 75.8422 33.9928 75.8422 34.2764V37.7838V37.7783Z" fill="white"/>
<path d="M80.9062 38.9893V38.6947C81.5881 38.6293 81.6644 38.5802 81.6644 37.8438V34.4673C81.6644 33.7255 81.5826 33.671 80.9062 33.611V33.3164H83.4809V33.611C82.799 33.6764 82.7227 33.731 82.7227 34.4673V37.8438C82.7227 38.5747 82.799 38.6184 83.4809 38.6947V38.9893H80.9062Z" fill="white"/>
<path d="M90.5487 33.6094C90.0087 33.6749 89.8342 33.7785 89.8069 34.1767C89.7851 34.4985 89.7633 34.8149 89.7633 35.5949V39.0804H89.3323L85.6559 34.6458V36.6913C85.6559 37.4604 85.6777 37.8204 85.6995 38.0713C85.7268 38.475 85.9232 38.655 86.5614 38.6932V38.9877H84.4122V38.6932C84.925 38.6495 85.1377 38.5186 85.1868 38.1041C85.2195 37.804 85.2359 37.4604 85.2359 36.6858V34.564C85.2359 34.2912 85.2195 34.1167 85.0559 33.904C84.8977 33.6858 84.6959 33.6531 84.3086 33.6149V33.3203H85.8741L89.3323 37.3731V35.6004C89.3323 34.8203 89.3214 34.504 89.2942 34.204C89.2669 33.8221 89.1087 33.6585 88.3887 33.6149V33.3203H90.5433V33.6149L90.5487 33.6094Z" fill="white"/>
<path d="M97.1679 36.5986C96.6551 36.6804 96.6006 36.7186 96.6006 37.2859V37.9787C96.6006 38.2896 96.6115 38.5841 96.6551 38.8187C96.1751 38.9114 95.3024 39.1132 94.5878 39.1132C92.5587 39.1132 91.375 37.8696 91.375 36.135C91.375 34.2149 92.9405 33.1895 94.7569 33.1895C95.526 33.1895 96.2569 33.364 96.5406 33.3967C96.5569 33.7622 96.6169 34.3786 96.6824 34.8804L96.3715 34.9404C96.1642 34.1986 95.8642 33.844 95.3187 33.6585C95.1169 33.5876 94.7842 33.5494 94.5496 33.5494C93.3932 33.5494 92.575 34.4658 92.575 36.004C92.575 37.5423 93.175 38.7587 94.7023 38.7587C94.9205 38.7587 95.1605 38.7205 95.3242 38.6277C95.4715 38.5405 95.5587 38.4096 95.5587 38.1096V37.3568C95.5587 36.735 95.4551 36.675 94.686 36.5932V36.2931H97.1679V36.5932V36.5986Z" fill="white"/>
<path d="M103.025 38.9878V38.6932C103.581 38.6168 103.603 38.5241 103.483 38.1641C103.385 37.875 103.232 37.4659 103.085 37.0459H101.317C101.203 37.3568 101.083 37.695 100.979 37.995C100.794 38.5514 100.974 38.6223 101.672 38.6932V38.9878H99.5664V38.6932C100.117 38.6223 100.254 38.5514 100.554 37.7986L102.365 33.2603L102.736 33.1895C103.292 34.7004 103.887 36.2877 104.448 37.7659C104.754 38.5623 104.836 38.6223 105.419 38.6932V38.9878H103.019H103.025ZM102.217 34.6458C101.956 35.3168 101.694 35.9768 101.459 36.6313H102.932L102.217 34.6458Z" fill="white"/>
<path d="M112.031 33.6094C111.491 33.6749 111.316 33.7785 111.289 34.1767C111.267 34.4985 111.245 34.8149 111.245 35.5949V39.0804H110.809L107.132 34.6458V36.6913C107.132 37.4604 107.154 37.8204 107.176 38.0713C107.203 38.475 107.4 38.655 108.038 38.6932V38.9877H105.889V38.6932C106.402 38.6495 106.614 38.5186 106.663 38.1041C106.696 37.804 106.712 37.4604 106.712 36.6858V34.564C106.712 34.2912 106.696 34.1167 106.532 33.904C106.374 33.6858 106.172 33.6531 105.785 33.6149V33.3203H107.351L110.809 37.3731V35.6004C110.809 34.8203 110.798 34.504 110.771 34.204C110.743 33.8221 110.585 33.6585 109.865 33.6149V33.3203H112.02V33.6149L112.031 33.6094Z" fill="white"/>
<path d="M115.427 33.3164C116.583 33.3164 117.391 33.5564 117.942 34.0746C118.383 34.4892 118.711 35.1001 118.711 35.9674C118.711 36.9765 118.291 37.7674 117.62 38.2747C116.965 38.7656 116.131 38.9947 115.111 38.9947H112.836V38.7002C113.529 38.6402 113.594 38.5693 113.594 37.8492V34.4728C113.594 33.731 113.496 33.6764 112.836 33.6164V33.3219H115.427V33.3164ZM114.647 37.7783C114.647 38.4111 114.849 38.6129 115.492 38.6129C116.807 38.6129 117.532 37.702 117.532 36.0983C117.532 35.2255 117.271 34.5001 116.769 34.1128C116.387 33.7855 115.918 33.671 115.334 33.671C114.985 33.671 114.816 33.7364 114.751 33.791C114.674 33.8619 114.647 33.9928 114.647 34.2764V37.7838V37.7783Z" fill="white"/>
<path d="M127.203 37.5283C127.083 37.9592 126.853 38.6083 126.717 38.9028C126.483 38.9574 125.779 39.1265 125.113 39.1265C122.855 39.1265 121.852 37.6592 121.852 36.2192C121.852 34.4191 123.221 33.1973 125.266 33.1973C126.024 33.1973 126.673 33.3718 126.913 33.4045C126.957 33.8082 127.017 34.4137 127.077 34.8118L126.755 34.8719C126.575 34.2227 126.33 33.89 125.877 33.7045C125.659 33.6118 125.332 33.5682 125.064 33.5682C123.739 33.5682 123.057 34.6264 123.057 36.0228C123.057 37.6537 123.897 38.7338 125.168 38.7338C125.959 38.7338 126.428 38.341 126.892 37.4083L127.197 37.5228L127.203 37.5283Z" fill="white"/>
<path d="M131.205 33.1895C132.776 33.1895 134.102 34.3567 134.102 36.0804C134.102 37.9459 132.793 39.1187 131.156 39.1187C129.433 39.1187 128.184 37.8423 128.184 36.1731C128.184 34.6567 129.264 33.1895 131.2 33.1895H131.205ZM131.058 33.5549C130.136 33.5549 129.4 34.4113 129.4 35.9877C129.4 37.5641 130.093 38.7587 131.293 38.7587C132.204 38.7587 132.902 37.9623 132.902 36.3313C132.902 34.564 132.122 33.5549 131.058 33.5549Z" fill="white"/>
<path d="M141.171 33.6094C140.631 33.6749 140.457 33.7785 140.43 34.1767C140.408 34.4985 140.386 34.8149 140.386 35.5949V39.0804H139.95L136.273 34.6458V36.6913C136.273 37.4604 136.295 37.8204 136.317 38.0713C136.344 38.475 136.54 38.655 137.179 38.6932V38.9877H135.029V38.6932C135.542 38.6495 135.76 38.5186 135.804 38.1041C135.837 37.804 135.853 37.4604 135.853 36.6858V34.564C135.853 34.2912 135.837 34.1167 135.673 33.904C135.515 33.6858 135.313 33.6531 134.926 33.6149V33.3203H136.491L139.95 37.3731V35.6004C139.95 34.8203 139.939 34.504 139.911 34.204C139.884 33.8221 139.726 33.6585 139.006 33.6149V33.3203H141.16V33.6149L141.171 33.6094Z" fill="white"/>
<path d="M146.828 34.7781C146.735 34.4181 146.577 34.1017 146.484 33.9708C146.332 33.769 146.255 33.7035 145.754 33.7035H145.083V37.86C145.083 38.5745 145.164 38.64 145.961 38.7V38.9946H143.19V38.7C143.959 38.64 144.03 38.58 144.03 37.86V33.7035H143.408C142.923 33.7035 142.781 33.7744 142.623 33.9981C142.508 34.1672 142.404 34.4454 142.29 34.7835H141.984C142.044 34.1835 142.099 33.5453 142.121 33.1035H142.361C142.492 33.3053 142.595 33.3162 142.852 33.3162H146.332C146.572 33.3162 146.675 33.2726 146.817 33.1035H147.057C147.057 33.4853 147.095 34.2054 147.139 34.7508L146.834 34.7781H146.828Z" fill="white"/>
<path d="M153.372 39.0477C153.301 39.0477 153.197 39.0477 153.088 39.0368C152.145 38.9877 151.817 38.775 151.512 38.3495C151.174 37.8804 150.896 37.3404 150.607 36.8495C150.459 36.5986 150.339 36.544 150.001 36.544H149.783V37.8477C149.783 38.5677 149.876 38.6222 150.541 38.6986V38.9932H147.988V38.6986C148.676 38.6277 148.746 38.5677 148.746 37.8477V34.4549C148.746 33.7458 148.654 33.6749 147.988 33.6149V33.3203H150.416C151.141 33.3203 151.583 33.4021 151.932 33.6421C152.287 33.8767 152.521 34.264 152.521 34.7985C152.521 35.5676 152.019 35.9985 151.419 36.244C151.561 36.5113 151.91 37.084 152.172 37.4822C152.483 37.9568 152.668 38.1859 152.843 38.3877C153.056 38.6223 153.187 38.7041 153.421 38.7804L153.367 39.0586L153.372 39.0477ZM150.083 36.2004C150.487 36.2004 150.776 36.1349 150.977 35.9658C151.283 35.7204 151.414 35.3822 151.414 34.924C151.414 33.9967 150.852 33.6585 150.296 33.6585C150.056 33.6585 149.93 33.6912 149.87 33.7458C149.805 33.8003 149.783 33.8985 149.783 34.0949V36.2004H150.083Z" fill="white"/>
<path d="M157.24 38.9878V38.6932C157.796 38.6168 157.818 38.5241 157.698 38.1641C157.6 37.875 157.447 37.4659 157.3 37.0459H155.532C155.423 37.3568 155.298 37.695 155.194 37.995C155.009 38.5514 155.189 38.6223 155.887 38.6932V38.9878H153.781V38.6932C154.332 38.6223 154.469 38.5514 154.769 37.7986L156.579 33.2603L156.95 33.1895C157.507 34.7004 158.101 36.2877 158.663 37.7659C158.969 38.5623 159.05 38.6223 159.634 38.6932V38.9878H157.234H157.24ZM156.432 34.6458C156.17 35.3168 155.909 35.9768 155.674 36.6313H157.147L156.432 34.6458Z" fill="white"/>
<path d="M165.468 37.5283C165.348 37.9592 165.119 38.6083 164.983 38.9028C164.748 38.9574 164.045 39.1265 163.379 39.1265C161.121 39.1265 160.117 37.6592 160.117 36.2192C160.117 34.4191 161.486 33.1973 163.532 33.1973C164.29 33.1973 164.939 33.3718 165.185 33.4045C165.223 33.8082 165.288 34.4137 165.348 34.8118L165.026 34.8719C164.846 34.2227 164.601 33.89 164.148 33.7045C163.93 33.6118 163.603 33.5682 163.335 33.5682C162.01 33.5682 161.328 34.6264 161.328 36.0228C161.328 37.6537 162.168 38.7338 163.439 38.7338C164.23 38.7338 164.699 38.341 165.163 37.4083L165.468 37.5228V37.5283Z" fill="white"/>
<path d="M171.215 34.7781C171.122 34.4181 170.964 34.1017 170.871 33.9708C170.718 33.769 170.642 33.7035 170.14 33.7035H169.469V37.86C169.469 38.5745 169.551 38.64 170.348 38.7V38.9946H167.577V38.7C168.346 38.64 168.417 38.58 168.417 37.86V33.7035H167.795C167.309 33.7035 167.167 33.7744 167.009 33.9981C166.895 34.1672 166.791 34.4454 166.677 34.7835H166.371C166.431 34.1835 166.486 33.5453 166.507 33.1035H166.747C166.878 33.3053 166.982 33.3162 167.238 33.3162H170.718C170.958 33.3162 171.062 33.2726 171.204 33.1035H171.444C171.444 33.4853 171.482 34.2054 171.526 34.7508L171.22 34.7781H171.215Z" fill="white"/>
<path d="M172.367 38.9893V38.6947C173.049 38.6293 173.125 38.5802 173.125 37.8438V34.4673C173.125 33.7255 173.044 33.671 172.367 33.611V33.3164H174.942V33.611C174.26 33.6764 174.184 33.731 174.184 34.4673V37.8438C174.184 38.5747 174.26 38.6184 174.942 38.6947V38.9893H172.367Z" fill="white"/>
<path d="M182.011 33.6094C181.471 33.6749 181.297 33.7785 181.269 34.1767C181.248 34.4985 181.226 34.8149 181.226 35.5949V39.0804H180.789L177.113 34.6458V36.6913C177.113 37.4604 177.135 37.8204 177.157 38.0713C177.184 38.475 177.38 38.655 178.018 38.6932V38.9877H175.869V38.6932C176.382 38.6495 176.595 38.5186 176.644 38.1041C176.677 37.804 176.693 37.4604 176.693 36.6858V34.564C176.693 34.2912 176.677 34.1167 176.513 33.904C176.355 33.6858 176.153 33.6531 175.766 33.6149V33.3203H177.331L180.789 37.3731V35.6004C180.789 34.8203 180.778 34.504 180.751 34.204C180.724 33.8221 180.566 33.6585 179.851 33.6149V33.3203H182.006V33.6149L182.011 33.6094Z" fill="white"/>
<path d="M188.625 36.5986C188.112 36.6804 188.058 36.7186 188.058 37.2859V37.9787C188.058 38.2896 188.069 38.5841 188.112 38.8187C187.632 38.9114 186.759 39.1132 186.045 39.1132C184.016 39.1132 182.832 37.8696 182.832 36.135C182.832 34.2149 184.398 33.1895 186.214 33.1895C186.983 33.1895 187.714 33.364 187.998 33.3967C188.014 33.7622 188.074 34.3786 188.139 34.8804L187.829 34.9404C187.621 34.1986 187.321 33.844 186.776 33.6585C186.574 33.5876 186.241 33.5494 186.007 33.5494C184.85 33.5494 184.032 34.4658 184.032 36.004C184.032 37.5423 184.632 38.7587 186.159 38.7587C186.378 38.7587 186.618 38.7205 186.781 38.6277C186.928 38.5405 187.016 38.4096 187.016 38.1096V37.3568C187.016 36.735 186.912 36.675 186.143 36.5932V36.2931H188.625V36.5932V36.5986Z" fill="white"/>
<path d="M199.627 33.6094C199.005 33.6912 198.901 33.8003 198.656 34.5149C198.405 35.2567 197.74 37.3786 197.21 39.0859H196.79C196.343 37.7931 195.814 36.364 195.334 35.0604C194.859 36.4458 194.396 37.7931 193.97 39.0859H193.539C193.158 37.7604 192.623 36.0149 192.138 34.4767C191.914 33.7949 191.799 33.6694 191.254 33.6149V33.3203H193.725V33.6149C193.076 33.6803 193.054 33.7949 193.179 34.2476C193.485 35.3113 193.807 36.3858 194.118 37.4331C194.576 36.1458 195.029 34.7603 195.449 33.3803H195.847C196.332 34.7658 196.823 36.0967 197.314 37.444C197.652 36.424 198.1 34.9349 198.247 34.3458C198.372 33.8331 198.29 33.6912 197.543 33.6203V33.3258H199.627V33.6203V33.6094Z" fill="white"/>
<path d="M199.972 39.0981C199.595 39.0981 199.328 38.8199 199.328 38.4272C199.328 38.0345 199.595 37.7617 199.972 37.7617C200.348 37.7617 200.632 38.0454 200.632 38.4272C200.632 38.809 200.359 39.0981 199.972 39.0981Z" fill="white"/>
<path d="M206.109 37.4838C206.044 37.822 205.793 38.7438 205.711 38.9893H201.473V38.6947C202.253 38.6347 202.318 38.5802 202.318 37.8438V34.4673C202.318 33.731 202.231 33.671 201.56 33.611V33.3164H204.151V33.611C203.464 33.6764 203.371 33.7255 203.371 34.4673V37.9147C203.371 38.4111 203.409 38.5965 203.895 38.6074C203.911 38.6074 204.391 38.6183 204.429 38.6183C204.909 38.6183 205.04 38.5311 205.247 38.302C205.433 38.1111 205.645 37.7401 205.793 37.3965L206.104 37.4892L206.109 37.4838Z" fill="white"/>
<path d="M207.651 39.0981C207.275 39.0981 207.008 38.8199 207.008 38.4272C207.008 38.0345 207.275 37.7617 207.651 37.7617C208.028 37.7617 208.311 38.0454 208.311 38.4272C208.311 38.809 208.039 39.0981 207.651 39.0981Z" fill="white"/>
<path d="M213.797 37.4838C213.731 37.822 213.48 38.7438 213.398 38.9893H209.16V38.6947C209.94 38.6347 210.006 38.5802 210.006 37.8438V34.4673C210.006 33.731 209.918 33.671 209.247 33.611V33.3164H211.838V33.611C211.151 33.6764 211.058 33.7255 211.058 34.4673V37.9147C211.058 38.4111 211.097 38.5965 211.582 38.6074C211.598 38.6074 212.078 38.6183 212.117 38.6183C212.597 38.6183 212.728 38.5311 212.935 38.302C213.12 38.1111 213.333 37.7401 213.48 37.3965L213.791 37.4892L213.797 37.4838Z" fill="white"/>
<defs>
<linearGradient id="paint0_linear_2040_29961" x1="0.378906" y1="24.2878" x2="42.5348" y2="24.2878" gradientUnits="userSpaceOnUse">
<stop offset="0.095" stop-color="white"/>
<stop offset="0.77" stop-color="white"/>
</linearGradient>
</defs>
</svg>
